<svg fill="none" xmlns="http://www.w3.org/2000/svg">
    <path fill-rule="evenodd" clip-rule="evenodd"
          d="M7.58889 1.42779C7.72966 1.3574 7.89534 1.3574 8.03611 1.42779L13.9736 4.39654C14.143 4.48123 14.25 4.65436 14.25 4.84375V10.7812C14.25 10.9706 14.143 11.1438 13.9736 11.2285L8.03611 14.1972C7.89534 14.2676 7.72966 14.2676 7.58889 14.1972L1.65139 11.2285C1.482 11.1438 1.375 10.9706 1.375 10.7812V4.84375C1.375 4.65436 1.482 4.48123 1.65139 4.39654L7.58889 1.42779ZM2.375 5.65277L7.3125 8.12152V12.941L2.375 10.4722V5.65277ZM8.3125 12.941L13.25 10.4722V5.65277L11.1822 6.68666C11.1665 6.6956 11.1504 6.70367 11.1338 6.71085L8.3125 8.12152V12.941ZM7.8125 7.25348L9.81497 6.25225L4.99224 3.84415L2.99303 4.84375L7.8125 7.25348ZM6.11073 3.2849L10.9335 5.693L12.632 4.84375L7.8125 2.43402L6.11073 3.2849Z"
          fill="currentColor"/>
</svg>
