<svg width="20" height="20" viewBox="0 0 20 20" fill="none" xmlns="http://www.w3.org/2000/svg">
    <path fill-rule="evenodd" clip-rule="evenodd"
          d="M2.4 3.6c0-.22.18-.4.4-.4h.92c.56 0 1.05.39 1.17.93L5.2 5.6h9.84a1.2 1.2 0 0 1 1.1 1.5l-1.02 3.93c-.13.53-.61.9-1.16.9H6.67l.26 1.11c0 .04.03.07.07.09a1.66 1.66 0 0 1 1.3.02h3.76c.2-.1.43-.15.67-.15.94 0 1.68.77 1.68 1.7 0 .93-.74 1.7-1.68 1.7a1.69 1.69 0 0 1-1.5-2.45h-2.1a1.7 1.7 0 0 1-1.5 2.45 1.7 1.7 0 0 1-1.36-2.7.4.4 0 0 1-.03-.23.92.92 0 0 1-.1-.25l-2.03-8.9A.4.4 0 0 0 3.72 4H2.8a.4.4 0 0 1-.4-.4Zm9.92 10.31a.9.9 0 0 0-.46.8c0 .5.4.89.87.89.48 0 .88-.4.88-.9s-.4-.9-.88-.9a.86.86 0 0 0-.4.11Zm-5.08-.02a.86.86 0 0 1 .78.01.9.9 0 0 1 .48.8c0 .5-.4.9-.87.9a.89.89 0 0 1-.88-.9.9.9 0 0 1 .5-.8Zm-.75-2.76h7.47a.4.4 0 0 0 .39-.3l1.02-3.93a.4.4 0 0 0-.37-.5H5.4l1.1 4.73Z"
          fill="currentColor"/>
    <path fill-rule="evenodd" clip-rule="evenodd"
          d="m5 4.11.28 1.4h9.77c.82.03 1.4.82 1.19 1.61l-1.02 3.94a1.3 1.3 0 0 1-1.26.97H6.8l.22.98a1.76 1.76 0 0 1 1.3.04h3.72c.21-.1.45-.15.7-.15.98 0 1.77.82 1.77 1.8 0 .99-.79 1.8-1.78 1.8a1.79 1.79 0 0 1-1.65-2.45h-1.8a1.79 1.79 0 0 1-1.66 2.45 1.8 1.8 0 0 1-1.47-2.8.5.5 0 0 1-.01-.22 1.02 1.02 0 0 1-.09-.24l-2.03-8.9a.3.3 0 0 0-.3-.24H2.8a.5.5 0 0 1 0-1h.92c.61 0 1.14.42 1.27 1.01Zm1.24 9.36a.4.4 0 0 0 .02.24 1.7 1.7 0 0 0 1.37 2.69 1.69 1.69 0 0 0 1.5-2.45h2.1a1.76 1.76 0 0 0-.17.75c0 .93.74 1.7 1.67 1.7.94 0 1.68-.77 1.68-1.7a1.69 1.69 0 0 0-2.35-1.55H8.3a1.66 1.66 0 0 0-1.3-.02.12.12 0 0 1-.07-.09l-.26-1.11h7.3a1.2 1.2 0 0 0 1.15-.9l1.02-3.93a1.2 1.2 0 0 0-1.1-1.5H5.2l-.3-1.47a1.2 1.2 0 0 0-1.18-.93H2.8a.4.4 0 1 0 0 .8h.92a.4.4 0 0 1 .4.31l2.03 8.91c.02.09.05.17.09.25Zm6.13.53a.8.8 0 0 0-.41.7c0 .45.35.8.77.8.43 0 .78-.35.78-.8 0-.45-.35-.8-.78-.8a.76.76 0 0 0-.36.1Zm-.05-.09a.9.9 0 0 0-.46.8c0 .5.4.89.87.89.48 0 .88-.4.88-.9s-.4-.9-.88-.9a.86.86 0 0 0-.4.11Zm-5.03.07a.76.76 0 0 1 .69.01c.25.13.42.4.42.71 0 .45-.35.8-.77.8a.79.79 0 0 1-.78-.8.8.8 0 0 1 .44-.72Zm-.06-.08a.9.9 0 0 0-.48.8c0 .5.4.9.88.9.47 0 .87-.4.87-.9a.9.9 0 0 0-.48-.8.86.86 0 0 0-.79 0Zm-.66-2.87h7.4a.3.3 0 0 0 .28-.22l1.02-3.94A.3.3 0 0 0 15 6.5H5.53l1.04 4.53Zm-.08.1h7.47a.4.4 0 0 0 .39-.3l1.02-3.93a.4.4 0 0 0-.37-.5H5.4l1.1 4.73Z"
          fill="currentColor"/>
</svg>
