<svg width="448" height="129" viewBox="0 0 448 129" fill="none" xmlns="http://www.w3.org/2000/svg">
<path d="M18.5398 54.2099H0.0197754V1.13989H18.5398V18.6999H47.0998V1.13989H65.7198V54.2099H47.0998V33.1799H18.5398V54.2099ZM0.00976562 127.31H18.5298V88.7199H121.44V127.31H140.06V74.2399H0.00976562V127.31ZM429.07 108.78L447.02 111.96C443.35 122.77 433.51 128.36 412.96 128.36C390.67 128.36 377.07 117.94 377.07 100.76C377.07 84.2599 390.39 73.1599 412.67 73.1599C433.51 73.1599 447.4 82.8099 447.4 99.0199C447.4 101.33 447.21 103.07 446.73 105H395.5C397.14 111.56 402.83 114.84 413.06 114.84C422.61 114.86 427.53 112.93 429.07 108.78ZM395.88 94.8899H428.97C427.33 88.8099 421.83 86.2999 412.76 86.2999C403.21 86.2999 397.81 89.0999 395.88 94.8899ZM221.98 100.78C221.98 118.15 208.96 128.38 186.38 128.38C163.9 128.38 150.78 118.15 150.78 100.78C150.78 83.4099 163.9 73.1799 186.38 73.1799C208.86 73.1799 221.98 83.4099 221.98 100.78ZM202.97 100.78C202.97 91.6099 197.86 87.2699 186.38 87.2699C174.9 87.2699 169.69 91.6099 169.69 100.78C169.69 109.95 174.9 114.29 186.38 114.29C197.86 114.29 202.97 109.94 202.97 100.78ZM377.35 74.2399H353.23L327.86 94.9899V74.2399H309.34V127.31H327.86V103.77L353.14 127.31H378.13L346.68 98.1699L377.35 74.2399ZM238.08 86.9799C238.08 100.68 237.41 107.44 234.9 110.91C233.16 113.22 230.56 114.19 226.6 114.38L227.37 128.18C237.31 128.37 244.16 126.73 248.6 121.52C253.42 116.02 255.64 106.76 255.74 89.4899V88.7199H276.48V127.31H295V74.2399H238.17L238.08 86.9799ZM101.09 22.6599L122.7 20.9199C122.31 15.4199 118.55 13.0099 109.29 13.0099C100.32 13.0099 96.3598 15.2299 95.4898 20.0499L77.6398 17.1499C81.0198 5.5699 90.9598 0.0699463 109.58 0.0699463C130.81 0.0699463 140.07 6.52993 140.07 20.4299V54.1999H125.31L123.38 45.7099C117.88 51.7899 109.1 55.2599 98.2898 55.2599C84.2998 55.2599 75.9998 49.2799 75.9998 39.2399C75.9998 29.2199 83.5298 24.1099 101.09 22.6599ZM100.22 33.2699C95.9798 33.6599 93.9498 35.2999 93.9498 37.9999C93.9498 41.2799 96.5498 42.7299 102.54 42.7299C114.21 42.7299 122.99 37.9099 122.99 31.5399L122.98 31.2499L100.22 33.2699Z" fill="#F8371C"/>
</svg>
